<svg width="20" height="20" viewBox="0 0 20 20" fill="none" xmlns="http://www.w3.org/2000/svg">
<g id="ic/chevron/left">
<path id="&#227;&#133;&#135;&#227;&#133;&#135;" d="M4 10C4 10.288 4.10369 10.5415 4.32258 10.7604L13.4585 19.6889C13.6544 19.8963 13.9078 20 14.2074 20C14.8065 20 15.2673 19.5507 15.2673 18.9516C15.2673 18.6521 15.1406 18.3986 14.9562 18.2028L6.56912 10L14.9562 1.79724C15.1406 1.60138 15.2673 1.33641 15.2673 1.04839C15.2673 0.449309 14.8065 0 14.2074 0C13.9078 0 13.6544 0.103687 13.4585 0.299539L4.32258 9.23963C4.10369 9.447 4 9.71198 4 10Z" fill="#414141"/>
</g>
</svg>
