<svg width="20" height="20" viewBox="0 0 20 20" fill="none" xmlns="http://www.w3.org/2000/svg">
    <path d="M3.86598 14.8359C3.53395 15.168 3.52418 15.7344 3.86598 16.0762C4.19801 16.418 4.77418 16.4082 5.10621 16.0762L10.1062 11.0664L15.116 16.0762C15.448 16.4082 16.0144 16.418 16.3464 16.0762C16.698 15.7344 16.6882 15.168 16.3464 14.8359L11.3464 9.82618L16.3464 4.82618C16.6882 4.49415 16.698 3.91798 16.3464 3.58595C16.0144 3.24415 15.448 3.25392 15.116 3.58595L10.1062 8.59572L5.10621 3.58595C4.77418 3.25392 4.19801 3.24415 3.86598 3.58595C3.52418 3.91798 3.53395 4.49415 3.86598 4.82618L8.87575 9.82618L3.86598 14.8359Z" fill="#414141"/>
</svg>
