<svg width="16" height="16" viewBox="0 0 16 16" fill="none" xmlns="http://www.w3.org/2000/svg">
    <path d="M0.595534 4.53226H15.3886C15.7221 4.53226 16 4.27022 16 3.92879C16 3.59529 15.7221 3.33325 15.3886 3.33325H0.595534C0.262035 3.33325 0 3.59529 0 3.92879C0 4.27022 0.262035 4.53226 0.595534 4.53226ZM0.595534 8.69305H15.3886C15.7221 8.69305 16 8.42308 16 8.08958C16 7.75608 15.7221 7.49405 15.3886 7.49405H0.595534C0.262035 7.49405 0 7.75608 0 8.08958C0 8.42308 0.262035 8.69305 0.595534 8.69305ZM0.595534 12.8459H15.3886C15.7221 12.8459 16 12.5839 16 12.2504C16 11.9169 15.7221 11.6469 15.3886 11.6469H0.595534C0.262035 11.6469 0 11.9169 0 12.2504C0 12.5839 0.262035 12.8459 0.595534 12.8459Z" fill="#ECECEC"/>
</svg>
