<svg width="167" height="21" viewBox="0 0 167 21" fill="none" xmlns="http://www.w3.org/2000/svg">
    <rect width="21" height="21" rx="5" fill="#D9D9D9"/>
    <rect x="87" width="21" height="21" rx="5" fill="#00D087"/>
    <path d="M32.472 5.276H33.984V7.166C33.984 10.372 32.864 13.382 30.414 14.586L29.294 13.088C31.478 12.066 32.472 9.574 32.472 7.166V5.276ZM32.85 5.276H34.334V7.166C34.334 9.49 35.258 11.856 37.33 12.864L36.21 14.348C33.872 13.158 32.85 10.274 32.85 7.166V5.276ZM37.848 4.282H39.724V17.246H37.848V4.282ZM39.304 9.266H41.6V10.82H39.304V9.266ZM45.0709 8.622H46.9329V11.002H45.0709V8.622ZM49.6349 8.622H51.4829V11.002H49.6349V8.622ZM42.4389 10.428H54.1569V11.898H42.4389V10.428ZM48.2769 12.556C51.0769 12.556 52.7709 13.396 52.7709 14.894C52.7709 16.406 51.0769 17.246 48.2769 17.246C45.4629 17.246 43.7689 16.406 43.7689 14.894C43.7689 13.396 45.4629 12.556 48.2769 12.556ZM48.2769 13.956C46.5409 13.956 45.6589 14.25 45.6589 14.894C45.6589 15.552 46.5409 15.846 48.2769 15.846C50.0129 15.846 50.8949 15.552 50.8949 14.894C50.8949 14.25 50.0129 13.956 48.2769 13.956ZM48.3049 4.464C51.1609 4.464 52.9949 5.416 52.9949 6.97C52.9949 8.51 51.1609 9.434 48.3049 9.434C45.4349 9.434 43.6149 8.51 43.6149 6.97C43.6149 5.416 45.4349 4.464 48.3049 4.464ZM48.3049 5.892C46.5269 5.892 45.5329 6.242 45.5329 6.97C45.5329 7.684 46.5269 8.034 48.3049 8.034C50.0829 8.034 51.0769 7.684 51.0769 6.97C51.0769 6.242 50.0829 5.892 48.3049 5.892ZM60.2458 10.792H62.1078V13.074H60.2458V10.792ZM55.3178 10.176H67.0358V11.646H55.3178V10.176ZM61.1558 12.57C63.9558 12.57 65.6498 13.41 65.6498 14.908C65.6498 16.406 63.9558 17.246 61.1558 17.246C58.3418 17.246 56.6478 16.406 56.6478 14.908C56.6478 13.41 58.3418 12.57 61.1558 12.57ZM61.1558 13.97C59.4198 13.97 58.5378 14.264 58.5378 14.908C58.5378 15.538 59.4198 15.846 61.1558 15.846C62.8918 15.846 63.7738 15.538 63.7738 14.908C63.7738 14.264 62.8918 13.97 61.1558 13.97ZM59.8958 5.5H61.5478V5.822C61.5478 7.768 59.7978 9.364 56.4518 9.672L55.8078 8.216C58.6498 7.978 59.8958 6.83 59.8958 5.822V5.5ZM60.8058 5.5H62.4578V5.822C62.4578 6.844 63.6898 7.978 66.5458 8.216L65.9018 9.672C62.5698 9.364 60.8058 7.782 60.8058 5.822V5.5ZM56.3818 4.814H65.9858V6.284H56.3818V4.814Z" fill="black"/>
    <path d="M123.182 6.04H126.192V7.538H123.182V6.04ZM119.528 4.08H121.026V5.48C121.026 8.126 119.92 10.38 117.47 11.276L116.49 9.82C118.632 9.106 119.528 7.314 119.528 5.48V4.08ZM119.934 4.08H121.418V5.494C121.418 7.16 122.272 8.826 124.316 9.526L123.322 10.954C120.998 10.114 119.934 7.944 119.934 5.494V4.08ZM125.548 3.296H127.41V12.858H125.548V3.296ZM118.828 14.538H127.69V16.022H118.828V14.538ZM118.828 11.892H120.704V15.364H118.828V11.892ZM129.873 9.19H130.769C132.645 9.19 133.849 9.162 135.277 8.924L135.445 10.408C133.961 10.66 132.701 10.702 130.769 10.702H129.873V9.19ZM129.873 4.15H134.983V5.634H131.665V10.016H129.873V4.15ZM131.133 6.684H134.843V8.084H131.133V6.684ZM138.721 3.282H140.485V11.192H138.721V3.282ZM137.167 6.46H139.225V7.944H137.167V6.46ZM135.949 3.52H137.685V11.108H135.949V3.52ZM131.581 11.752H140.485V16.246H138.637V13.236H131.581V11.752ZM150.606 3.268H152.482V16.232H150.606V3.268ZM151.992 8.224H154.274V9.75H151.992V8.224ZM147.204 4.612H149.024C149.024 8.504 147.54 11.836 143.228 14.006L142.192 12.592C145.594 10.828 147.204 8.448 147.204 4.934V4.612ZM142.906 4.612H148.156V6.11H142.906V4.612ZM156.681 6.502H165.627V7.986H156.681V6.502ZM156.681 3.492H158.529V7.174H156.681V3.492ZM155.211 9.092H166.943V10.576H155.211V9.092ZM161.035 11.402C163.835 11.402 165.529 12.27 165.529 13.81C165.529 15.336 163.835 16.218 161.035 16.218C158.235 16.218 156.527 15.336 156.527 13.81C156.527 12.27 158.235 11.402 161.035 11.402ZM161.035 12.83C159.299 12.83 158.417 13.138 158.417 13.81C158.417 14.468 159.299 14.79 161.035 14.79C162.771 14.79 163.653 14.468 163.653 13.81C163.653 13.138 162.771 12.83 161.035 12.83Z" fill="black"/>
</svg>
