<svg width="50" height="39" viewBox="0 0 50 39" fill="none" xmlns="http://www.w3.org/2000/svg">
    <path d="M6.39251 39H43.6075C47.842 39 50 36.8731 50 32.6602V11.248C50 7.03513 47.842 4.92868 43.6075 4.92868H37.785C36.1767 4.92868 35.6881 4.60147 34.772 3.57892L33.1433 1.73833C32.1254 0.613529 31.0871 0 28.9902 0H20.8673C18.7704 0 17.7321 0.613529 16.7142 1.73833L15.0855 3.57892C14.1694 4.58102 13.6604 4.92868 12.0725 4.92868H6.39251C2.13762 4.92868 0 7.03513 0 11.248V32.6602C0 36.8731 2.13762 39 6.39251 39ZM25 32.967C18.8314 32.967 13.8844 28.0178 13.8844 21.7803C13.8844 15.5632 18.8314 10.6141 25 10.6141C31.1686 10.6141 36.0953 15.5632 36.0953 21.7803C36.0953 28.0178 31.1482 32.967 25 32.967ZM37.4593 14.2543C37.4593 12.8637 38.6808 11.6366 40.1059 11.6366C41.5106 11.6366 42.7117 12.8637 42.7117 14.2543C42.7117 15.7063 41.5106 16.8721 40.1059 16.8925C38.6808 16.8925 37.4593 15.7268 37.4593 14.2543ZM25 29.8584C29.4381 29.8584 33.0212 26.2795 33.0212 21.7803C33.0212 17.3015 29.4381 13.7022 25 13.7022C20.5619 13.7022 16.9585 17.3015 16.9585 21.7803C16.9585 26.2795 20.5822 29.8584 25 29.8584Z" fill="#818181"/>
</svg>
