<svg width="20" height="21" viewBox="0 0 20 21" fill="none" xmlns="http://www.w3.org/2000/svg">
    <path d="M8.32115 16.1585C9.9471 16.1585 11.4465 15.6377 12.6732 14.7697L17.2882 19.341C17.5024 19.5532 17.7848 19.6593 18.0866 19.6593C18.7194 19.6593 19.1673 19.1771 19.1673 18.5598C19.1673 18.2705 19.07 18.0005 18.8558 17.7883L14.27 13.2363C15.2339 11.9826 15.8083 10.4299 15.8083 8.7422C15.8083 4.66277 12.4396 1.32593 8.32115 1.32593C4.21246 1.32593 0.833984 4.65312 0.833984 8.7422C0.833984 12.8216 4.20272 16.1585 8.32115 16.1585ZM8.32115 14.5576C5.10819 14.5576 2.4502 11.9247 2.4502 8.7422C2.4502 5.55966 5.10819 2.92684 8.32115 2.92684C11.5341 2.92684 14.1921 5.55966 14.1921 8.7422C14.1921 11.9247 11.5341 14.5576 8.32115 14.5576Z" fill="#414141"/>
</svg>
