<svg width="10" height="7" viewBox="0 0 10 7" fill="none" xmlns="http://www.w3.org/2000/svg">
    <path d="M4.65498 6.93174C4.78607 6.92977 4.90049 6.86488 4.99812 6.73005L8.97846 1.10393C9.07106 0.98321 9.11593 0.828109 9.1132 0.645644C9.10773 0.280715 8.89901 0.00306686 8.62635 0.00715622C8.49001 0.0092009 8.37581 0.088128 8.28835 0.201751L4.63151 5.36675L0.821427 0.313737C0.730602 0.202788 0.608841 0.127399 0.47775 0.129365C0.205081 0.133455 0.00479008 0.417237 0.0102631 0.782166C0.0129997 0.964631 0.0625078 1.11832 0.153439 1.23628L4.30596 6.74043C4.40234 6.87235 4.52389 6.93371 4.65498 6.93174Z" fill="#818181"/>
</svg>
