<svg width="20" height="20" viewBox="0 0 20 20" fill="none" xmlns="http://www.w3.org/2000/svg">
    <path d="M5.28617 11.3013L5.2861 11.3014L5.28879 11.3046L7.66854 14.1673C7.80216 14.3375 7.94003 14.462 8.09284 14.5437C8.24686 14.6259 8.41049 14.6616 8.59047 14.6616C8.94875 14.6616 9.25514 14.4934 9.46227 14.1579L13.9189 7.25663C13.919 7.25646 13.9191 7.2563 13.9192 7.25613C14.0419 7.07044 14.1821 6.82402 14.1821 6.58582C14.1821 6.08459 13.7299 5.77687 13.2759 5.77687C12.9796 5.77687 12.7031 5.93979 12.5172 6.25372L8.53415 12.5234L6.69708 10.2004C6.57749 10.039 6.45573 9.92741 6.32317 9.85691C6.18943 9.78577 6.05157 9.76007 5.90631 9.76007C5.41155 9.76007 5.04754 10.1533 5.04754 10.6343C5.04754 10.864 5.13221 11.0994 5.28617 11.3013ZM2.94025 19.9C1.9737 19.9 1.26853 19.6612 0.80434 19.2003C0.340275 18.7394 0.1 18.0396 0.1 17.0802V2.9291C0.1 1.97455 0.340221 1.2721 0.804594 0.807644C1.26896 0.343188 1.97418 0.1 2.94025 0.1H17.0598C18.0258 0.1 18.731 0.343188 19.1954 0.807644C19.6598 1.2721 19.9 1.97455 19.9 2.9291V17.0802C19.9 18.0396 19.6597 18.7394 19.1957 19.2003C18.7315 19.6612 18.0263 19.9 17.0598 19.9H2.94025Z" fill="#02B878" stroke="#818181" stroke-width="0.2"/>
</svg>
